<svg viewBox="-764 -417 1528 834" width="1528" height="834" style="background-color: rgb(255, 255, 255);" xmlns="http://www.w3.org/2000/svg"><path d="M-38.17270993306686,15.0914450000278L-44.64445087404605,14.18504010284072M-44.64445087404605,-52.42088165373566L-44.64445087404605,14.18504010284072M-44.64445087404605,14.18504010284072L-68.20618739094125,36.61549449332261M-38.17270993306686,-51.51447675654858L-38.17270993306686,15.0914450000278M-38.17270993306686,15.0914450000278L-61.734446449962064,37.52189939050969" style="fill:none;stroke:rgb(0,0,0);stroke-width:1;stroke-linecap:round"></path><path d="M-38.17270993306686,15.091445000027798L-44.64445087404604,14.18504010284072L-44.64445087404604,-52.42088165373566z" style="fill:rgb(238,238,238); fill-opacity: 0.4"></path><path d="M5.14659557341484,19.287533965338447L-20.740368190501922,15.661914376590133M-20.740368190501922,-44.49115668111994L-20.740368190501922,15.661914376590133M-20.740368190501922,15.661914376590133L-41.81979413819175,35.72924268909186" style="fill:none;stroke:rgb(0,0,0);stroke-width:1;stroke-linecap:round"></path><path d="M-38.17270993306686,-51.51447675654858L-38.17270993306686,15.091445000027798L-44.64445087404604,-52.42088165373566zM-68.20618739094124,36.61549449332261L-44.64445087404604,14.18504010284072L-38.17270993306686,15.091445000027798z" style="fill:rgb(238,238,238); fill-opacity: 0.4"></path><path d="M5.14659557341484,-40.865537092371625L5.14659557341484,19.287533965338447M5.14659557341484,19.287533965338447L-15.93283037427499,39.354862277840176" style="fill:none;stroke:rgb(0,0,0);stroke-width:1;stroke-linecap:round"></path><path d="M5.146595573414838,19.287533965338447L-20.740368190501922,15.66191437659013L-20.740368190501922,-44.491156681119946z" style="fill:rgb(238,238,238); fill-opacity: 0.4"></path><path d="M-38.17270993306686,-51.51447675654858L-44.64445087404605,-52.42088165373566M-44.64445087404605,-52.42088165373566L-68.20618739094125,-29.990427263253775M-38.17270993306686,-51.51447675654858L-61.734446449962064,-29.084022366066694" style="fill:none;stroke:rgb(0,0,0);stroke-width:1;stroke-linecap:round"></path><path d="M-61.73444644996205,37.52189939050969L-38.17270993306686,15.091445000027798L-38.17270993306686,-51.51447675654858zM-41.81979413819176,35.72924268909186L-20.740368190501922,15.66191437659013L5.146595573414838,19.287533965338447z" style="fill:rgb(238,238,238); fill-opacity: 0.4"></path><path d="M54.93764174745678,24.390023208534906L22.5789361521391,19.857998597890777M22.5789361521391,-33.8422111070704L22.5789361521391,19.857998597890777M22.5789361521391,19.857998597890777L3.981822139781131,37.562199531878434" style="fill:none;stroke:rgb(0,0,0);stroke-width:1;stroke-linecap:round"></path><path d="M5.146595573414838,-40.86553709237163L5.146595573414838,19.287533965338447L-20.740368190501922,-44.491156681119946zM-44.64445087404604,-52.42088165373566L-44.64445087404604,14.18504010284072L-68.20618739094124,-29.990427263253775z" style="fill:rgb(238,238,238); fill-opacity: 0.4"></path><path d="M5.14659557341484,-40.865537092371625L-20.740368190501922,-44.49115668111994M-20.740368190501922,-44.49115668111994L-41.81979413819175,-24.423828368618206" style="fill:none;stroke:rgb(0,0,0);stroke-width:1;stroke-linecap:round"></path><path d="M-61.73444644996205,37.52189939050969L-68.20618739094124,36.61549449332261L-38.17270993306686,15.091445000027798z" style="fill:rgb(238,238,238); fill-opacity: 0.4"></path><path d="M-51.410873438391384,4.4639712468702415L-57.882614379370565,3.557566349683162M-57.882614379370565,-1.0971859719572035L-57.882614379370565,3.557566349683162M-57.882614379370565,3.557566349683162L-59.673223687608655,5.262202185450473" style="fill:none;stroke:rgb(0,0,0);stroke-width:1;stroke-linecap:round"></path><path d="M-51.41087343839137,4.4639712468702415L-57.88261437937056,3.557566349683163L-57.88261437937056,-1.0971859719572041z" style="fill:rgb(153,221,255); fill-opacity: 0.4"></path><path d="M-51.410873438391384,-0.19078107477012488L-57.882614379370565,-1.0971859719572035M-57.882614379370565,-1.0971859719572035L-59.673223687608655,0.6074498638101071" style="fill:none;stroke:rgb(0,0,0);stroke-width:1;stroke-linecap:round"></path><path d="M-59.67322368760865,5.262202185450474L-57.88261437937056,3.557566349683163L-51.41087343839137,4.4639712468702415z" style="fill:rgb(153,221,255); fill-opacity: 0.4"></path><path d="M-51.410873438391384,-0.19078107477012488L-51.410873438391384,4.4639712468702415M-51.410873438391384,4.4639712468702415L-53.20148274662947,6.168607082637552M-51.410873120136145,-0.19078077638442667L-51.410873120136145,4.463971101344166M-51.410873120136145,4.463971101344166L-53.201482428374234,6.168606937111477M-51.410873120136145,4.463971101344166L-33.384826081862165,3.995005286333008" style="fill:none;stroke:rgb(0,0,0);stroke-width:1;stroke-linecap:round"></path><path d="M-57.88261437937056,-1.0971859719572041L-57.88261437937056,3.557566349683163L-59.67322368760865,0.6074498638101072zM-51.41087343839137,-0.19078107477012554L-51.41087343839137,4.4639712468702415L-57.88261437937056,-1.0971859719572041z" style="fill:rgb(153,221,255); fill-opacity: 0.4"></path><path d="M54.93764174745679,24.390023208534906L22.578936152139104,19.857998597890777L22.578936152139104,-33.842211107070405z" style="fill:rgb(238,238,238); fill-opacity: 0.4"></path><path d="M-57.88261437937056,3.557566349683163L-59.67322368760865,5.262202185450474L-59.67322368760865,0.6074498638101072z" style="fill:rgb(153,221,255); fill-opacity: 0.4"></path><path d="M54.93764174745678,-29.31018649642628L54.93764174745678,24.390023208534906M54.93764174745678,24.390023208534906L36.34052773509882,42.094224142522556M-51.410873438391384,-0.19078107477012488L-53.20148274662947,1.5138547609971862M-51.410873120136145,-0.19078077638442667L-53.201482428374234,1.5138550593828846M-51.410873120136145,-0.19078077638442667L-33.384826081862165,3.995005286333008M-59.673223687608655,0.6074498638101071L-59.673223687608655,5.262202185450473M-59.673223687608655,5.262202185450473L-53.20148274662947,6.168607082637552" style="fill:none;stroke:rgb(0,0,0);stroke-width:1;stroke-linecap:round"></path><path d="M-51.410873447283,-0.19078107601545116L-51.410873447283,4.463971245624916L-53.20148275552109,6.168607081392227z" style="fill:rgb(255,187,187); fill-opacity: 0.4"></path><path d="M-53.201482746629466,6.1686070826375525L-51.41087343839137,4.4639712468702415L-51.41087343839137,-0.19078107477012554zM-53.201482746629466,6.1686070826375525L-59.67322368760865,5.262202185450474L-51.41087343839137,4.4639712468702415z" style="fill:rgb(153,221,255); fill-opacity: 0.4"></path><path d="M-20.740368190501922,-44.491156681119946L-20.740368190501922,15.66191437659013L-41.81979413819176,-24.42382836861821z" style="fill:rgb(238,238,238); fill-opacity: 0.4"></path><path d="M-53.201482746629466,1.5138547609971857L-51.41087343839137,-0.19078107477012554L-57.88261437937056,-1.0971859719572041z" style="fill:rgb(153,221,255); fill-opacity: 0.4"></path><path d="M5.14659557341484,-40.865537092371625L-15.93283037427499,-20.798208779869892" style="fill:none;stroke:rgb(0,0,0);stroke-width:1;stroke-linecap:round"></path><path d="M-61.73444644996205,-29.084022366066698L-38.17270993306686,-51.51447675654858L-44.64445087404604,-52.42088165373566z" style="fill:rgb(238,238,238); fill-opacity: 0.4"></path><path d="M-59.67322368760865,0.6074498638101072L-53.201482746629466,1.5138547609971857L-57.88261437937056,-1.0971859719572041z" style="fill:rgb(153,221,255); fill-opacity: 0.4"></path><path d="M-44.64445087404604,14.18504010284072L-68.20618739094124,36.61549449332261L-68.20618739094124,-29.990427263253775z" style="fill:rgb(238,238,238); fill-opacity: 0.4"></path><path d="M-51.410873447283,4.463971245624916L-51.410873447283,-0.19078107601545116L-33.384826382520316,3.9950050595353543z" style="fill:rgb(255,187,187); fill-opacity: 0.4"></path><path d="M-59.673223687608655,0.6074498638101071L-53.20148274662947,1.5138547609971862" style="fill:none;stroke:rgb(0,0,0);stroke-width:1;stroke-linecap:round"></path><path d="M-15.932830374274989,39.354862277840176L5.146595573414838,19.287533965338447L5.146595573414838,-40.86553709237163z" style="fill:rgb(238,238,238); fill-opacity: 0.4"></path><path d="M-59.67322368760865,0.6074498638101072L-59.67322368760865,5.262202185450474L-53.201482746629466,1.5138547609971857z" style="fill:rgb(153,221,255); fill-opacity: 0.4"></path><path d="M-51.410873447283,-0.19078107601545116L-53.20148275552109,6.168607081392227L-53.20148275552109,1.5138547597518601z" style="fill:rgb(255,187,187); fill-opacity: 0.4"></path><path d="M-53.201482746629466,1.5138547609971857L-53.201482746629466,6.1686070826375525L-51.41087343839137,-0.19078107477012554zM-59.67322368760865,5.262202185450474L-53.201482746629466,6.1686070826375525L-53.201482746629466,1.5138547609971857z" style="fill:rgb(153,221,255); fill-opacity: 0.4"></path><path d="M-53.20148274662947,1.5138547609971862L-53.20148274662947,6.168607082637552M-53.201482428374234,6.168606937111477L-53.201482428374234,1.5138550593828846M-53.201482428374234,6.168606937111477L-33.384826081862165,3.995005286333008" style="fill:none;stroke:rgb(0,0,0);stroke-width:1;stroke-linecap:round"></path><path d="M-53.20148275552109,6.168607081392227L-51.410873447283,4.463971245624916L-33.384826382520316,3.9950050595353543zM-51.410873447283,-0.19078107601545116L-53.20148275552109,1.5138547597518601L-33.384826382520316,3.9950050595353543z" style="fill:rgb(255,187,187); fill-opacity: 0.4"></path><path d="M-53.201482428374234,1.5138550593828846L-33.384826081862165,3.995005286333008" style="fill:none;stroke:rgb(0,0,0);stroke-width:1;stroke-linecap:round"></path><path d="M-53.20148275552109,1.5138547597518601L-53.20148275552109,6.168607081392227L-33.384826382520316,3.9950050595353543z" style="fill:rgb(255,187,187); fill-opacity: 0.4"></path><path d="M50.45049096892521,11.91605800825072L18.091785373607525,7.384033397606595M18.091785373607525,4.591182004622374L18.091785373607525,7.384033397606595M18.091785373607525,7.384033397606595L17.017419788664668,8.406814899066982M50.45049096892521,9.123206615266502L18.091785373607525,4.591182004622374M18.091785373607525,4.591182004622374L17.017419788664668,5.6139635060827615" style="fill:none;stroke:rgb(0,0,0);stroke-width:1;stroke-linecap:round"></path><path d="M3.981822139781132,37.56219953187843L22.578936152139104,19.857998597890777L54.93764174745679,24.390023208534906z" style="fill:rgb(238,238,238); fill-opacity: 0.4"></path><path d="M18.091785373607525,4.5911820046223735L18.091785373607525,7.384033397606595L17.01741978866467,5.61396350608276zM18.091785373607525,7.384033397606595L17.01741978866467,8.406814899066982L17.01741978866467,5.61396350608276z" style="fill:rgb(153,221,255); fill-opacity: 0.4"></path><path d="M17.017419788664668,5.6139635060827615L17.017419788664668,8.406814899066982M17.017419788664668,8.406814899066982L49.376125383982355,12.938839509711109" style="fill:none;stroke:rgb(0,0,0);stroke-width:1;stroke-linecap:round"></path><path d="M-15.932830374274989,39.354862277840176L-41.81979413819176,35.72924268909186L5.146595573414838,19.287533965338447z" style="fill:rgb(238,238,238); fill-opacity: 0.4"></path><path d="M54.93764174745678,-29.31018649642628L22.5789361521391,-33.8422111070704M22.5789361521391,-33.8422111070704L3.981822139781131,-16.138010173082744M17.017419788664668,5.6139635060827615L49.376125383982355,10.145988116726889" style="fill:none;stroke:rgb(0,0,0);stroke-width:1;stroke-linecap:round"></path><path d="M50.45049096892521,11.916058008250722L18.091785373607525,7.384033397606595L18.091785373607525,4.5911820046223735z" style="fill:rgb(153,221,255); fill-opacity: 0.4"></path><path d="M54.93764174745679,-29.31018649642628L54.93764174745679,24.390023208534906L22.578936152139104,-33.842211107070405zM-20.740368190501922,15.66191437659013L-41.81979413819176,35.72924268909186L-41.81979413819176,-24.42382836861821z" style="fill:rgb(238,238,238); fill-opacity: 0.4"></path><path d="M17.01741978866467,8.406814899066982L18.091785373607525,7.384033397606595L50.45049096892521,11.916058008250722z" style="fill:rgb(153,221,255); fill-opacity: 0.4"></path><path d="M111.2004270638512,30.398920648304525L72.3699831988195,24.960491514599514M72.3699831988195,-22.28686394020116L72.3699831988195,24.960491514599514M72.3699831988195,24.960491514599514L56.255181121793385,40.301565070073096M-68.20618739094125,-29.990427263253775L-68.20618739094125,36.61549449332261M-68.20618739094125,36.61549449332261L-61.734446449962064,37.52189939050969" style="fill:none;stroke:rgb(0,0,0);stroke-width:1;stroke-linecap:round"></path><path d="M17.01741978866467,5.61396350608276L49.376125383982355,10.145988116726889L18.091785373607525,4.5911820046223735z" style="fill:rgb(153,221,255); fill-opacity: 0.4"></path><path d="M-61.73444644996205,-29.084022366066698L-61.73444644996205,37.52189939050969L-38.17270993306686,-51.51447675654858z" style="fill:rgb(238,238,238); fill-opacity: 0.4"></path><path d="M17.01741978866467,5.61396350608276L17.01741978866467,8.406814899066982L49.376125383982355,10.145988116726889zM50.45049096892521,9.123206615266502L50.45049096892521,11.916058008250722L18.091785373607525,4.5911820046223735z" style="fill:rgb(153,221,255); fill-opacity: 0.4"></path><path d="M-61.734446449962064,-29.084022366066694L-61.734446449962064,37.52189939050969" style="fill:none;stroke:rgb(0,0,0);stroke-width:1;stroke-linecap:round"></path><path d="M-15.932830374274989,-20.798208779869892L5.146595573414838,-40.86553709237163L-20.740368190501922,-44.491156681119946z" style="fill:rgb(238,238,238); fill-opacity: 0.4"></path><path d="M49.376125383982355,12.93883950971111L17.01741978866467,8.406814899066982L50.45049096892521,11.916058008250722zM49.376125383982355,10.145988116726889L50.45049096892521,9.123206615266502L18.091785373607525,4.5911820046223735zM17.01741978866467,8.406814899066982L49.376125383982355,12.93883950971111L49.376125383982355,10.145988116726889z" style="fill:rgb(153,221,255); fill-opacity: 0.4"></path><path d="M50.45049096892521,9.123206615266502L50.45049096892521,11.91605800825072M50.45049096892521,11.91605800825072L49.376125383982355,12.938839509711109M50.45049195745286,9.123206853545838L50.45049195745286,11.916057802618285M50.45049195745286,11.916057802618285L49.37612637251,12.938839304078671M50.45049195745286,11.916057802618285L68.01628995786795,12.274501088872052" style="fill:none;stroke:rgb(0,0,0);stroke-width:1;stroke-linecap:round"></path><path d="M22.578936152139104,-33.842211107070405L22.578936152139104,19.857998597890777L3.981822139781132,-16.138010173082744z" style="fill:rgb(238,238,238); fill-opacity: 0.4"></path><path d="M50.45049096892521,9.123206615266502L49.376125383982355,10.145988116726889M50.45049195745286,9.123206853545838L49.37612637251,10.145988355006224M50.45049195745286,9.123206853545838L68.01628995786795,12.274501088872052" style="fill:none;stroke:rgb(0,0,0);stroke-width:1;stroke-linecap:round"></path><path d="M50.450490479256146,9.123206546685505L50.450490479256146,11.916057939669727L49.37612489431329,12.938839441130115z" style="fill:rgb(255,187,187); fill-opacity: 0.4"></path><path d="M49.376125383982355,12.93883950971111L50.45049096892521,11.916058008250722L50.45049096892521,9.123206615266502z" style="fill:rgb(153,221,255); fill-opacity: 0.4"></path><path d="M-11.820737003665041,11.613598762284186L-37.707700767581805,7.987979173535869M-37.707700767581805,5.19512778055165L-37.707700767581805,7.987979173535869M-37.707700767581805,7.987979173535869L-38.78206635252466,9.010760674996257M-41.81979413819175,-24.423828368618206L-41.81979413819175,35.72924268909186M-41.81979413819175,35.72924268909186L-15.93283037427499,39.354862277840176M-11.820737003665041,8.820747369299964L-37.707700767581805,5.19512778055165M-37.707700767581805,5.19512778055165L-38.78206635252466,6.2179092820120365" style="fill:none;stroke:rgb(0,0,0);stroke-width:1;stroke-linecap:round"></path><path d="M50.450490479256146,9.123206546685505L49.37612489431329,12.938839441130115L49.37612489431329,10.145988048145894z" style="fill:rgb(255,187,187); fill-opacity: 0.4"></path><path d="M49.376125383982355,10.145988116726889L49.376125383982355,12.93883950971111L50.45049096892521,9.123206615266502z" style="fill:rgb(153,221,255); fill-opacity: 0.4"></path><path d="M-68.20618739094124,-29.990427263253775L-61.73444644996205,-29.084022366066698L-44.64445087404604,-52.42088165373566z" style="fill:rgb(238,238,238); fill-opacity: 0.4"></path><path d="M49.376125383982355,10.145988116726889L49.376125383982355,12.938839509711109M49.37612637251,12.938839304078671L49.37612637251,10.145988355006224M49.37612637251,12.938839304078671L68.01628995786795,12.274501088872052" style="fill:none;stroke:rgb(0,0,0);stroke-width:1;stroke-linecap:round"></path><path d="M-37.707700767581805,5.195127780551648L-37.707700767581805,7.987979173535868L-38.782066352524666,6.217909282012036zM-37.707700767581805,7.987979173535868L-38.782066352524666,9.010760674996257L-38.782066352524666,6.217909282012036z" style="fill:rgb(153,221,255); fill-opacity: 0.4"></path><path d="M54.93764174745678,-29.31018649642628L36.34052773509882,-11.605985562438619M49.37612637251,10.145988355006224L68.01628995786795,12.274501088872052" style="fill:none;stroke:rgb(0,0,0);stroke-width:1;stroke-linecap:round"></path><path d="M50.450490479256146,11.916057939669727L50.450490479256146,9.123206546685505L68.01628857500192,12.274500747228517z" style="fill:rgb(255,187,187); fill-opacity: 0.4"></path><path d="M-38.78206635252466,6.2179092820120365L-38.78206635252466,9.010760674996257M-38.78206635252466,9.010760674996257L-12.895102588607896,12.636380263744572" style="fill:none;stroke:rgb(0,0,0);stroke-width:1;stroke-linecap:round"></path><path d="M111.20042706385117,30.398920648304518L72.3699831988195,24.960491514599518L72.3699831988195,-22.286863940201165z" style="fill:rgb(238,238,238); fill-opacity: 0.4"></path><path d="M49.37612489431329,12.938839441130115L50.450490479256146,11.916057939669727L68.01628857500192,12.274500747228517z" style="fill:rgb(255,187,187); fill-opacity: 0.4"></path><path d="M36.34052773509882,42.094224142522556L54.93764174745679,24.390023208534906L54.93764174745679,-29.31018649642628z" style="fill:rgb(238,238,238); fill-opacity: 0.4"></path><path d="M-11.820737003665041,11.613598762284184L-37.707700767581805,7.987979173535868L-37.707700767581805,5.195127780551648z" style="fill:rgb(153,221,255); fill-opacity: 0.4"></path><path d="M-68.20618739094124,36.61549449332261L-61.73444644996205,37.52189939050969L-61.73444644996205,-29.084022366066698z" style="fill:rgb(238,238,238); fill-opacity: 0.4"></path><path d="M-38.78206635252466,6.2179092820120365L-12.895102588607896,9.843528870760352" style="fill:none;stroke:rgb(0,0,0);stroke-width:1;stroke-linecap:round"></path><path d="M50.450490479256146,9.123206546685505L49.37612489431329,10.145988048145894L68.01628857500192,12.274500747228517z" style="fill:rgb(255,187,187); fill-opacity: 0.4"></path><path d="M-38.782066352524666,9.010760674996257L-37.707700767581805,7.987979173535868L-11.820737003665041,11.613598762284184z" style="fill:rgb(153,221,255); fill-opacity: 0.4"></path><path d="M49.37612489431329,10.145988048145894L49.37612489431329,12.938839441130115L68.01628857500192,12.274500747228517z" style="fill:rgb(255,187,187); fill-opacity: 0.4"></path><path d="M-38.782066352524666,6.217909282012036L-12.895102588607894,9.843528870760352L-37.707700767581805,5.195127780551648z" style="fill:rgb(153,221,255); fill-opacity: 0.4"></path><path d="M111.2004270638512,-16.848434806496158L111.2004270638512,30.398920648304525M111.2004270638512,30.398920648304525L95.08562498682507,45.7399942037781" style="fill:none;stroke:rgb(0,0,0);stroke-width:1;stroke-linecap:round"></path><path d="M-38.782066352524666,6.217909282012036L-38.782066352524666,9.010760674996257L-12.895102588607894,9.843528870760352z" style="fill:rgb(153,221,255); fill-opacity: 0.4"></path><path d="M22.578936152139104,19.857998597890777L3.981822139781132,37.56219953187843L3.981822139781132,-16.138010173082744z" style="fill:rgb(238,238,238); fill-opacity: 0.4"></path><path d="M-11.820737003665041,8.820747369299964L-11.820737003665041,11.613598762284184L-37.707700767581805,5.195127780551648z" style="fill:rgb(153,221,255); fill-opacity: 0.4"></path><path d="M36.34052773509882,42.094224142522556L3.981822139781132,37.56219953187843L54.93764174745679,24.390023208534906z" style="fill:rgb(238,238,238); fill-opacity: 0.4"></path><path d="M-12.895102588607894,12.636380263744572L-38.782066352524666,9.010760674996257L-11.820737003665041,11.613598762284184zM-12.895102588607894,9.843528870760352L-11.820737003665041,8.820747369299964L-37.707700767581805,5.195127780551648z" style="fill:rgb(153,221,255); fill-opacity: 0.4"></path><path d="M-15.932830374274989,-20.798208779869892L-15.932830374274989,39.354862277840176L5.146595573414838,-40.86553709237163z" style="fill:rgb(238,238,238); fill-opacity: 0.4"></path><path d="M-38.782066352524666,9.010760674996257L-12.895102588607894,12.636380263744572L-12.895102588607894,9.843528870760352z" style="fill:rgb(153,221,255); fill-opacity: 0.4"></path><path d="M-11.820737003665041,8.820747369299964L-11.820737003665041,11.613598762284186M-11.820737003665041,11.613598762284186L-12.895102588607896,12.636380263744572M-11.820737104764229,8.820747447009419L-11.820737104764229,11.613598839993639M-11.820737104764229,11.613598839993639L-12.895102689707082,12.636380341454025M-11.820737104764229,11.613598839993639L7.135752147601171,11.610263949028663" style="fill:none;stroke:rgb(0,0,0);stroke-width:1;stroke-linecap:round"></path><path d="M56.255181121793385,40.30156507007309L72.3699831988195,24.960491514599518L111.20042706385117,30.398920648304518z" style="fill:rgb(238,238,238); fill-opacity: 0.4"></path><path d="M-15.93283037427499,-20.798208779869892L-15.93283037427499,39.354862277840176" style="fill:none;stroke:rgb(0,0,0);stroke-width:1;stroke-linecap:round"></path><path d="M-41.81979413819176,-24.42382836861821L-15.932830374274989,-20.798208779869892L-20.740368190501922,-44.491156681119946z" style="fill:rgb(238,238,238); fill-opacity: 0.4"></path><path d="M-11.820737003665041,8.820747369299964L-12.895102588607896,9.843528870760352M-11.820737104764229,8.820747447009419L-12.895102689707082,9.843528948469805M-11.820737104764229,8.820747447009419L7.135752147601171,11.610263949028663" style="fill:none;stroke:rgb(0,0,0);stroke-width:1;stroke-linecap:round"></path><path d="M-11.820737039231597,8.820747364318661L-11.820737039231597,11.613598757302881L-12.89510262417445,12.63638025876327z" style="fill:rgb(255,187,187); fill-opacity: 0.4"></path><path d="M-12.895102588607894,12.636380263744572L-11.820737003665041,11.613598762284184L-11.820737003665041,8.820747369299964z" style="fill:rgb(153,221,255); fill-opacity: 0.4"></path><path d="M111.2004270638512,-16.848434806496158L72.3699831988195,-22.28686394020116M72.3699831988195,-22.28686394020116L56.255181121793385,-6.945790384727589" style="fill:none;stroke:rgb(0,0,0);stroke-width:1;stroke-linecap:round"></path><path d="M-68.20618739094124,-29.990427263253775L-68.20618739094124,36.61549449332261L-61.73444644996205,-29.084022366066698z" style="fill:rgb(238,238,238); fill-opacity: 0.4"></path><path d="M-11.820737039231597,8.820747364318661L-12.89510262417445,12.63638025876327L-12.89510262417445,9.84352886577905z" style="fill:rgb(255,187,187); fill-opacity: 0.4"></path><path d="M-12.895102588607894,9.843528870760352L-12.895102588607894,12.636380263744572L-11.820737003665041,8.820747369299964z" style="fill:rgb(153,221,255); fill-opacity: 0.4"></path><path d="M-12.895102588607896,9.843528870760352L-12.895102588607896,12.636380263744572M-12.895102689707082,12.636380341454025L-12.895102689707082,9.843528948469805M-12.895102689707082,12.636380341454025L7.135752147601171,11.610263949028663" style="fill:none;stroke:rgb(0,0,0);stroke-width:1;stroke-linecap:round"></path><path d="M-11.820737039231597,11.613598757302881L-11.820737039231597,8.820747364318661L7.135751861021294,11.610263625523611zM-12.89510262417445,12.63638025876327L-11.820737039231597,11.613598757302881L7.135751861021294,11.610263625523611z" style="fill:rgb(255,187,187); fill-opacity: 0.4"></path><path d="M-12.895102689707082,9.843528948469805L7.135752147601171,11.610263949028663" style="fill:none;stroke:rgb(0,0,0);stroke-width:1;stroke-linecap:round"></path><path d="M-11.820737039231597,8.820747364318661L-12.89510262417445,9.84352886577905L7.135751861021294,11.610263625523611z" style="fill:rgb(255,187,187); fill-opacity: 0.4"></path><path d="M36.34052773509882,-11.605985562438617L54.93764174745679,-29.31018649642628L22.578936152139104,-33.842211107070405z" style="fill:rgb(238,238,238); fill-opacity: 0.4"></path><path d="M-12.89510262417445,9.84352886577905L-12.89510262417445,12.63638025876327L7.135751861021294,11.610263625523611z" style="fill:rgb(255,187,187); fill-opacity: 0.4"></path><path d="M111.20042706385117,-16.848434806496158L111.20042706385117,30.398920648304518L72.3699831988195,-22.286863940201165zM-41.81979413819176,35.72924268909186L-15.932830374274989,39.354862277840176L-15.932830374274989,-20.798208779869892z" style="fill:rgb(238,238,238); fill-opacity: 0.4"></path><path d="M3.981822139781131,-16.138010173082744L3.981822139781131,37.562199531878434M3.981822139781131,37.562199531878434L36.34052773509882,42.094224142522556" style="fill:none;stroke:rgb(0,0,0);stroke-width:1;stroke-linecap:round"></path><path d="M72.3699831988195,-22.286863940201165L72.3699831988195,24.960491514599518L56.255181121793385,-6.945790384727587zM-41.81979413819176,-24.42382836861821L-41.81979413819176,35.72924268909186L-15.932830374274989,-20.798208779869892z" style="fill:rgb(238,238,238); fill-opacity: 0.4"></path><path d="M-68.20618739094125,-29.990427263253775L-61.734446449962064,-29.084022366066694M-41.81979413819175,-24.423828368618206L-15.93283037427499,-20.798208779869892" style="fill:none;stroke:rgb(0,0,0);stroke-width:1;stroke-linecap:round"></path><path d="M72.3699831988195,24.960491514599518L56.255181121793385,40.30156507007309L56.255181121793385,-6.945790384727587z" style="fill:rgb(238,238,238); fill-opacity: 0.4"></path><path d="M111.2004270638512,-16.848434806496158L95.08562498682507,-1.5073612510225802" style="fill:none;stroke:rgb(0,0,0);stroke-width:1;stroke-linecap:round"></path><path d="M3.981822139781132,-16.138010173082744L36.34052773509882,-11.605985562438617L22.578936152139104,-33.842211107070405zM95.08562498682508,45.7399942037781L111.20042706385117,30.398920648304518L111.20042706385117,-16.848434806496158zM36.34052773509882,-11.605985562438617L36.34052773509882,42.094224142522556L54.93764174745679,-29.31018649642628z" style="fill:rgb(238,238,238); fill-opacity: 0.4"></path><path d="M132.76529112462146,52.61947415120384L126.29355018364225,51.71306925401676M126.29355018364225,-19.047568396972014L126.29355018364225,51.71306925401676M126.29355018364225,51.71306925401676L123.81123858984202,54.07619630739736M36.34052773509882,-11.605985562438619L36.34052773509882,42.094224142522556" style="fill:none;stroke:rgb(0,0,0);stroke-width:1;stroke-linecap:round"></path><path d="M95.08562498682508,45.7399942037781L56.255181121793385,40.30156507007309L111.20042706385117,30.398920648304518z" style="fill:rgb(238,238,238); fill-opacity: 0.4"></path><path d="M132.76529112462146,-18.14116349978493L132.76529112462146,52.61947415120384M132.76529112462146,52.61947415120384L130.28297953082122,54.98260120458444" style="fill:none;stroke:rgb(0,0,0);stroke-width:1;stroke-linecap:round"></path><path d="M123.81123858984202,54.07619630739737L126.29355018364225,51.713069254016766L132.76529112462146,52.61947415120385zM3.981822139781132,37.56219953187843L36.34052773509882,42.094224142522556L36.34052773509882,-11.605985562438617z" style="fill:rgb(238,238,238); fill-opacity: 0.4"></path><path d="M56.255181121793385,-6.945790384727589L56.255181121793385,40.301565070073096M56.255181121793385,40.301565070073096L95.08562498682507,45.7399942037781" style="fill:none;stroke:rgb(0,0,0);stroke-width:1;stroke-linecap:round"></path><path d="M130.28297953082122,54.98260120458445L123.81123858984202,54.07619630739737L132.76529112462146,52.61947415120385z" style="fill:rgb(238,238,238); fill-opacity: 0.4"></path><path d="M123.81123858984202,-16.684441343591413L123.81123858984202,54.07619630739736M123.81123858984202,54.07619630739736L130.28297953082122,54.98260120458444" style="fill:none;stroke:rgb(0,0,0);stroke-width:1;stroke-linecap:round"></path><path d="M3.981822139781132,-16.138010173082744L3.981822139781132,37.56219953187843L36.34052773509882,-11.605985562438617zM95.08562498682508,-1.5073612510225824L111.20042706385117,-16.848434806496158L72.3699831988195,-22.286863940201165z" style="fill:rgb(238,238,238); fill-opacity: 0.4"></path><path d="M130.28297953082122,-15.778036446404332L130.28297953082122,54.98260120458444" style="fill:none;stroke:rgb(0,0,0);stroke-width:1;stroke-linecap:round"></path><path d="M132.76529112462146,52.61947415120385L126.29355018364225,51.713069254016766L126.29355018364225,-19.04756839697201z" style="fill:rgb(238,238,238); fill-opacity: 0.4"></path><path d="M3.981822139781131,-16.138010173082744L36.34052773509882,-11.605985562438619M107.31257217758925,15.029748847887564L117.89422051817722,16.51177014071905" style="fill:none;stroke:rgb(0,0,0);stroke-width:1;stroke-linecap:round"></path><path d="M126.29355018364225,51.713069254016766L123.81123858984202,54.07619630739737L123.81123858984202,-16.684441343591413zM130.28297953082122,54.98260120458445L132.76529112462146,52.61947415120385L132.76529112462146,-18.14116349978493z" style="fill:rgb(238,238,238); fill-opacity: 0.4"></path><path d="M117.04273517157377,18.041571475790754L117.89422051817719,18.839146301539234L124.11871954205247,17.383547371796396zM118.42046738274219,14.1279033598916L117.36797365361221,15.129863150528841L124.11871954205247,17.383547371796396z" style="fill:rgb(0,0,0)"></path><path d="M56.255181121793385,-6.945790384727587L95.08562498682508,-1.5073612510225824L72.3699831988195,-22.286863940201165z" style="fill:rgb(238,238,238); fill-opacity: 0.4"></path><path d="M117.36797365361221,15.129863150528841L117.04273517157377,18.041571475790754L124.11871954205247,17.383547371796396z" style="fill:rgb(0,0,0)"></path><path d="M123.81123858984202,54.07619630739737L130.28297953082122,54.98260120458445L130.28297953082122,-15.778036446404332zM95.08562498682508,-1.5073612510225824L95.08562498682508,45.7399942037781L111.20042706385117,-16.848434806496158z" style="fill:rgb(238,238,238); fill-opacity: 0.4"></path><path d="M95.08562498682507,-1.5073612510225802L95.08562498682507,45.7399942037781" style="fill:none;stroke:rgb(0,0,0);stroke-width:1;stroke-linecap:round"></path><path d="M132.76529112462146,-18.14116349978493L132.76529112462146,52.61947415120385L126.29355018364225,-19.04756839697201zM126.29355018364225,-19.04756839697201L126.29355018364225,51.713069254016766L123.81123858984202,-16.684441343591413zM56.255181121793385,40.30156507007309L95.08562498682508,45.7399942037781L95.08562498682508,-1.5073612510225824zM56.255181121793385,-6.945790384727587L56.255181121793385,40.30156507007309L95.08562498682508,-1.5073612510225824z" style="fill:rgb(238,238,238); fill-opacity: 0.4"></path><path d="M56.255181121793385,-6.945790384727589L95.08562498682507,-1.5073612510225802" style="fill:none;stroke:rgb(0,0,0);stroke-width:1;stroke-linecap:round"></path><path d="M130.28297953082122,-15.778036446404332L130.28297953082122,54.98260120458445L132.76529112462146,-18.14116349978493zM123.81123858984202,-16.684441343591413L123.81123858984202,54.07619630739737L130.28297953082122,-15.778036446404332z" style="fill:rgb(238,238,238); fill-opacity: 0.4"></path><path d="M132.76529112462146,-18.14116349978493L126.29355018364225,-19.047568396972014M126.29355018364225,-19.047568396972014L123.81123858984202,-16.684441343591413M132.76529112462146,-18.14116349978493L130.28297953082122,-15.778036446404332" style="fill:none;stroke:rgb(0,0,0);stroke-width:1;stroke-linecap:round"></path><path d="M130.28297953082122,-15.778036446404332L132.76529112462146,-18.14116349978493L126.29355018364225,-19.04756839697201zM123.81123858984202,-16.684441343591413L130.28297953082122,-15.778036446404332L126.29355018364225,-19.04756839697201z" style="fill:rgb(238,238,238); fill-opacity: 0.4"></path><path d="M123.81123858984202,-16.684441343591413L130.28297953082122,-15.778036446404332" style="fill:none;stroke:rgb(0,0,0);stroke-width:1;stroke-linecap:round"></path></svg>